{"title":"Fear X (2003 Nicolas Winding Refn) BRRip XviD-pong","uid":15594685,"size":738745676,"categoryP":"video","categoryS":"movies","magnet":"?xt=urn:btih:9ca86ed2e4a4fc07e0fd7acd60d33ecd5a70287f&amp;dn=Fear+X+%282003+Nicolas+Winding+Refn%29+BRRip+XviD-pong+&amp;tr=udp%3A%2F%2Ftracker.leechers-paradise.org%3A6969&amp;tr=udp%3A%2F%2Fzer0day.ch%3A1337&amp;tr=udp%3A%2F%2Fopen.demonii.com%3A1337&amp;tr=udp%3A%2F%2Ftracker.coppersurfer.tk%3A6969&amp;tr=udp%3A%2F%2Fexodus.desync.com%3A6969","seeders":5,"leechers":1,"uploader":"Pongydog","files":1,"time":1471552804,"description":"http://www.imdb.com/title/tt0289944\r\n\r\n\r\nWhen his wife is killed in a seemingly random incident Harry (Turturro), prompted by mysterious visions, journeys to discover the true circumstances surrounding her murder. \r\n\r\nDirector: Nicolas Winding Refn  \r\n\r\nWriters: Hubert Selby Jr.,  Nicolas Winding Refn  \r\n\r\nStars: John Turturro,  Deborah Kara Unger,  Stephen Eric McIntyre  | See full cast &amp; crew » \r\n\r\n\r\n\r\n\r\n----\r\nGeneral\r\nComplete name                            : C:Usersuser1VideosFear X (2003 Nicolas Winding Refn) BRRip XviD-pong .avi\r\nFormat                                   : AVI\r\nFormat/Info                              : Audio Video Interleave\r\nFile size                                : 705 MiB\r\nDuration                                 : 1h 31mn\r\nOverall bit rate                         : 1 081 Kbps\r\nWriting application                      : Lavf57.36.100\r\n\r\nVideo\r\nID                                       : 0\r\nFormat                                   : MPEG-4 Visual\r\nFormat profile                           :   \r\nFormat settings, BVOP                    : No\r\nFormat settings, QPel                    : No\r\nFormat settings, GMC                     : No warppoints\r\nFormat settings, Matrix                  : Default (H.263)\r\nCodec ID                                 : XVID\r\nCodec ID/Hint                            : XviD\r\nDuration                                 : 1h 31mn\r\nBit rate                                 : 940 Kbps\r\nWidth                                    : 624 pixels\r\nHeight                                   : 284 pixels\r\nDisplay aspect ratio                     : 2.2:1\r\nOriginal display aspect ratio            : 2.2:1\r\nFrame rate                               : 24.000 fps\r\nColor space                              : YUV\r\nChroma subsampling                       : 4:2:0\r\nBit depth                                : 8 bits\r\nScan type                                : Progressive\r\nCompression mode                         : Lossy\r\nBits/(Pixel*Frame)                       : 0.221\r\nStream size                              : 613 MiB (87%)\r\nWriting library                          : XviD 67\r\n\r\nAudio\r\nID                                       : 1\r\nFormat                                   : MPEG Audio\r\nFormat version                           : Version 1\r\nFormat profile                           : Layer 3\r\nCodec ID                                 : 55\r\nCodec ID/Hint                            : MP3\r\nDuration                                 : 1h 31mn\r\nBit rate mode                            : Constant\r\nBit rate                                 : 128 Kbps\r\nChannel(s)                               : 2 channels\r\nSampling rate                            : 48.0 KHz\r\nCompression mode                         : Lossy\r\nStream size                              : 83.5 MiB (12%)\r\nAlignment                                : Aligned on interleaves\r\nInterleave, duration                     : 24 ms (0.58 video frame)\r\nInterleave, preload duration             : 24 ms","torrent":{"xt":"urn:btih:9ca86ed2e4a4fc07e0fd7acd60d33ecd5a70287f","amp;dn":"Fear+X+%282003+Nicolas+Winding+Refn%29+BRRip+XviD-pong+","amp;tr":["udp%3A%2F%2Ftracker.leechers-paradise.org%3A6969","udp%3A%2F%2Fzer0day.ch%3A1337","udp%3A%2F%2Fopen.demonii.com%3A1337","udp%3A%2F%2Ftracker.coppersurfer.tk%3A6969","udp%3A%2F%2Fexodus.desync.com%3A6969"],"infoHash":"9ca86ed2e4a4fc07e0fd7acd60d33ecd5a70287f","infoHashBuffer":{"type":"Buffer","data":[156,168,110,210,228,164,252,7,224,253,122,205,96,211,62,205,90,112,40,127]},"announce":[],"urlList":[]}}